<mxfile host="app.diagrams.net" modified="2022-06-29T09:09:27.308Z" agent="5.0 (Macintosh)" etag="WUB2OXewGpqyRoPyQ-Lt" version="20.0.1" type="github">
  <diagram id="zRpgoigiP1IDF4QAEYAz" name="Page-1">
    <mxGraphModel dx="1409" dy="854" grid="1" gridSize="10" guides="1" tooltips="1" connect="1" arrows="1" fold="1" page="1" pageScale="1" pageWidth="827" pageHeight="1169" math="0" shadow="0">
      <root>
        <mxCell id="0" />
        <mxCell id="1" parent="0" />
        <mxCell id="xNPf7Q8VACPQxdcIyB9K-5" value="" style="rounded=0;whiteSpace=wrap;html=1;fillColor=#FFBE73;strokeColor=#000000;" vertex="1" parent="1">
          <mxGeometry x="284" y="120" width="20" height="50" as="geometry" />
        </mxCell>
        <mxCell id="xNPf7Q8VACPQxdcIyB9K-7" value="" style="rounded=0;whiteSpace=wrap;html=1;fillColor=#FFBE73;" vertex="1" parent="1">
          <mxGeometry x="70" y="120" width="20" height="440" as="geometry" />
        </mxCell>
        <mxCell id="xNPf7Q8VACPQxdcIyB9K-15" value="" style="rounded=0;whiteSpace=wrap;html=1;fillColor=#FFBE73;" vertex="1" parent="1">
          <mxGeometry x="712" y="120" width="20" height="440" as="geometry" />
        </mxCell>
        <mxCell id="xNPf7Q8VACPQxdcIyB9K-17" value="" style="rounded=0;whiteSpace=wrap;html=1;fillColor=#FFBE73;strokeColor=#000000;" vertex="1" parent="1">
          <mxGeometry x="284" y="200" width="20" height="50" as="geometry" />
        </mxCell>
        <mxCell id="xNPf7Q8VACPQxdcIyB9K-18" value="" style="rounded=0;whiteSpace=wrap;html=1;fillColor=#FFBE73;strokeColor=#000000;" vertex="1" parent="1">
          <mxGeometry x="284" y="280" width="20" height="50" as="geometry" />
        </mxCell>
        <mxCell id="xNPf7Q8VACPQxdcIyB9K-19" value="" style="rounded=0;whiteSpace=wrap;html=1;fillColor=#FFBE73;strokeColor=#000000;" vertex="1" parent="1">
          <mxGeometry x="284" y="360" width="20" height="50" as="geometry" />
        </mxCell>
        <mxCell id="xNPf7Q8VACPQxdcIyB9K-20" value="" style="rounded=0;whiteSpace=wrap;html=1;fillColor=#FFBE73;strokeColor=#000000;" vertex="1" parent="1">
          <mxGeometry x="284" y="440" width="20" height="50" as="geometry" />
        </mxCell>
        <mxCell id="xNPf7Q8VACPQxdcIyB9K-21" value="" style="rounded=0;whiteSpace=wrap;html=1;fillColor=#FFBE73;strokeColor=#000000;" vertex="1" parent="1">
          <mxGeometry x="284" y="520" width="20" height="50" as="geometry" />
        </mxCell>
        <mxCell id="xNPf7Q8VACPQxdcIyB9K-22" value="" style="rounded=0;whiteSpace=wrap;html=1;fillColor=#FFBE73;strokeColor=#000000;" vertex="1" parent="1">
          <mxGeometry x="500" y="120" width="20" height="50" as="geometry" />
        </mxCell>
        <mxCell id="xNPf7Q8VACPQxdcIyB9K-23" value="" style="rounded=0;whiteSpace=wrap;html=1;fillColor=#FFBE73;strokeColor=#000000;" vertex="1" parent="1">
          <mxGeometry x="500" y="200" width="20" height="50" as="geometry" />
        </mxCell>
        <mxCell id="xNPf7Q8VACPQxdcIyB9K-24" value="" style="rounded=0;whiteSpace=wrap;html=1;fillColor=#FFBE73;strokeColor=#000000;" vertex="1" parent="1">
          <mxGeometry x="500" y="280" width="20" height="50" as="geometry" />
        </mxCell>
        <mxCell id="xNPf7Q8VACPQxdcIyB9K-25" value="" style="rounded=0;whiteSpace=wrap;html=1;fillColor=#FFBE73;strokeColor=#000000;" vertex="1" parent="1">
          <mxGeometry x="500" y="360" width="20" height="50" as="geometry" />
        </mxCell>
        <mxCell id="xNPf7Q8VACPQxdcIyB9K-26" value="" style="rounded=0;whiteSpace=wrap;html=1;fillColor=#FFBE73;strokeColor=#000000;" vertex="1" parent="1">
          <mxGeometry x="500" y="440" width="20" height="50" as="geometry" />
        </mxCell>
        <mxCell id="xNPf7Q8VACPQxdcIyB9K-27" value="" style="rounded=0;whiteSpace=wrap;html=1;fillColor=#FFBE73;strokeColor=#000000;" vertex="1" parent="1">
          <mxGeometry x="500" y="520" width="20" height="50" as="geometry" />
        </mxCell>
        <mxCell id="xNPf7Q8VACPQxdcIyB9K-28" value="&lt;div&gt;&lt;font style=&quot;font-size: 24px;&quot; face=&quot;Helvetica&quot; color=&quot;#FFFFFF&quot;&gt;自动驾驶车辆&lt;/font&gt;&lt;/div&gt;" style="rounded=1;whiteSpace=wrap;html=1;strokeColor=#000000;fillColor=#67AB9F;" vertex="1" parent="1">
          <mxGeometry x="340" y="395" width="120" height="140" as="geometry" />
        </mxCell>
        <mxCell id="xNPf7Q8VACPQxdcIyB9K-30" value="&lt;div&gt;&lt;font style=&quot;font-size: 24px;&quot; face=&quot;Helvetica&quot;&gt;不同车道周围物体&lt;/font&gt;&lt;/div&gt;" style="rounded=1;whiteSpace=wrap;html=1;strokeColor=#10739e;fillColor=#b1ddf0;fontColor=#000000;" vertex="1" parent="1">
          <mxGeometry x="125" y="180" width="120" height="140" as="geometry" />
        </mxCell>
        <mxCell id="xNPf7Q8VACPQxdcIyB9K-31" value="" style="strokeWidth=2;html=1;shape=mxgraph.flowchart.annotation_2;align=left;labelPosition=right;pointerEvents=1;fontFamily=Helvetica;fontSize=24;fontColor=#000000;fillColor=#67AB9F;rotation=-90;" vertex="1" parent="1">
          <mxGeometry x="160" y="520" width="50" height="190" as="geometry" />
        </mxCell>
        <mxCell id="xNPf7Q8VACPQxdcIyB9K-32" value="其他车道" style="text;html=1;align=center;verticalAlign=middle;resizable=0;points=[];autosize=1;strokeColor=none;fillColor=none;fontSize=24;fontFamily=Helvetica;fontColor=#000000;" vertex="1" parent="1">
          <mxGeometry x="130" y="650" width="110" height="30" as="geometry" />
        </mxCell>
        <mxCell id="xNPf7Q8VACPQxdcIyB9K-34" value="" style="strokeWidth=2;html=1;shape=mxgraph.flowchart.annotation_2;align=left;labelPosition=right;pointerEvents=1;fontFamily=Helvetica;fontSize=24;fontColor=#000000;fillColor=#67AB9F;rotation=-90;" vertex="1" parent="1">
          <mxGeometry x="375" y="520" width="50" height="190" as="geometry" />
        </mxCell>
        <mxCell id="xNPf7Q8VACPQxdcIyB9K-35" value="当前车道" style="text;html=1;align=center;verticalAlign=middle;resizable=0;points=[];autosize=1;strokeColor=none;fillColor=none;fontSize=24;fontFamily=Helvetica;fontColor=#000000;" vertex="1" parent="1">
          <mxGeometry x="345" y="650" width="110" height="30" as="geometry" />
        </mxCell>
        <mxCell id="xNPf7Q8VACPQxdcIyB9K-36" value="" style="strokeWidth=2;html=1;shape=mxgraph.flowchart.annotation_2;align=left;labelPosition=right;pointerEvents=1;fontFamily=Helvetica;fontSize=24;fontColor=#000000;fillColor=#67AB9F;rotation=-90;" vertex="1" parent="1">
          <mxGeometry x="595" y="520" width="50" height="190" as="geometry" />
        </mxCell>
        <mxCell id="xNPf7Q8VACPQxdcIyB9K-37" value="其他车道" style="text;html=1;align=center;verticalAlign=middle;resizable=0;points=[];autosize=1;strokeColor=none;fillColor=none;fontSize=24;fontFamily=Helvetica;fontColor=#000000;" vertex="1" parent="1">
          <mxGeometry x="565" y="650" width="110" height="30" as="geometry" />
        </mxCell>
        <mxCell id="xNPf7Q8VACPQxdcIyB9K-39" value="&lt;div&gt;&lt;font style=&quot;font-size: 24px;&quot; face=&quot;Helvetica&quot;&gt;同一车道周围物体&lt;/font&gt;&lt;/div&gt;" style="rounded=1;whiteSpace=wrap;html=1;strokeColor=#10739e;fillColor=#b1ddf0;fontColor=#000000;" vertex="1" parent="1">
          <mxGeometry x="340" y="180" width="120" height="140" as="geometry" />
        </mxCell>
      </root>
    </mxGraphModel>
  </diagram>
</mxfile>
